<svg width="229" height="77" viewBox="0 0 229 77" fill="none" xmlns="http://www.w3.org/2000/svg">
<path d="M33.4431 8.15001H25.2954V0.00231934C29.7947 0.00231934 33.4431 3.65973 33.4431 8.15001Z" fill="#E8555F"/>
<path d="M25.2954 8.15001H33.4431V16.2977C28.9438 16.2977 25.2954 12.6493 25.2954 8.15001Z" fill="#E8555F"/>
<path d="M41.5906 8.15001H33.4429V16.2977C37.9422 16.2977 41.5906 12.6493 41.5906 8.15001Z" fill="#E8555F"/>
<path d="M33.4429 8.15001H41.5906V0.00231934C37.0912 0.00231934 33.4429 3.65973 33.4429 8.15001Z" fill="#E8555F"/>
<path d="M52.6647 15.75C54.9146 15.75 56.7385 13.926 56.7385 11.6761C56.7385 9.4262 54.9146 7.60228 52.6647 7.60228C50.4147 7.60228 48.5908 9.4262 48.5908 11.6761C48.5908 13.926 50.4147 15.75 52.6647 15.75Z" fill="#6ACD4F"/>
<path d="M60.8121 15.75C63.062 15.75 64.886 13.926 64.886 11.6761C64.886 9.4262 63.062 7.60228 60.8121 7.60228C58.5622 7.60228 56.7383 9.4262 56.7383 11.6761C56.7383 13.926 58.5622 15.75 60.8121 15.75Z" fill="#6ACD4F"/>
<path d="M56.7384 8.69771C58.9883 8.69771 60.8122 6.87378 60.8122 4.62386C60.8122 2.37394 58.9883 0.550018 56.7384 0.550018C54.4885 0.550018 52.6646 2.37394 52.6646 4.62386C52.6646 6.87378 54.4885 8.69771 56.7384 8.69771Z" fill="#6ACD4F"/>
<path d="M77.3179 8.14547L80.0338 3.44698H85.4656L88.1815 8.14547L85.4656 12.853H80.0338L77.3179 8.14547Z" fill="#F19737"/>
<path d="M71.8862 8.14547L73.2442 5.80075H75.9601L77.318 8.14547L75.9601 10.4992H73.2442L71.8862 8.14547Z" fill="#F19737"/>
<path d="M102.852 16.3H95.1816V8.15C95.1816 3.64939 98.6164 0 102.852 0C107.088 0 110.523 3.64939 110.523 8.15C110.523 12.6506 107.088 16.3 102.852 16.3Z" fill="#FEFB54"/>
<path d="M128.383 0.00231934H122.951V5.43411H128.383V0.00231934Z" fill="#7C5CE1"/>
<path d="M128.383 10.8659H122.951V16.2977H128.383V10.8659Z" fill="#7C5CE1"/>
<path d="M117.522 5.43137V10.8632H122.954V5.43137H117.522Z" fill="#7C5CE1"/>
<path d="M128.386 5.43137V10.8632H133.818V5.43137H128.386Z" fill="#7C5CE1"/>
<path d="M148.965 12.2238C151.215 12.2238 153.039 10.3999 153.039 8.15C153.039 5.90008 151.215 4.07616 148.965 4.07616C146.716 4.07616 144.892 5.90008 144.892 8.15C144.892 10.3999 146.716 12.2238 148.965 12.2238Z" fill="#EFBEEB"/>
<path d="M144.892 16.2977C147.142 16.2977 148.966 14.4738 148.966 12.2239C148.966 9.97393 147.142 8.15001 144.892 8.15001C142.642 8.15001 140.818 9.97393 140.818 12.2239C140.818 14.4738 142.642 16.2977 144.892 16.2977Z" fill="#EFBEEB"/>
<path d="M153.039 16.2977C155.289 16.2977 157.113 14.4738 157.113 12.2239C157.113 9.97393 155.289 8.15001 153.039 8.15001C150.789 8.15001 148.965 9.97393 148.965 12.2239C148.965 14.4738 150.789 16.2977 153.039 16.2977Z" fill="#EFBEEB"/>
<path d="M144.892 8.15001C147.142 8.15001 148.966 6.32609 148.966 4.07616C148.966 1.82624 147.142 0.00231934 144.892 0.00231934C142.642 0.00231934 140.818 1.82624 140.818 4.07616C140.818 6.32609 142.642 8.15001 144.892 8.15001Z" fill="#EFBEEB"/>
<path d="M153.039 8.15001C155.289 8.15001 157.113 6.32609 157.113 4.07616C157.113 1.82624 155.289 0.00231934 153.039 0.00231934C150.789 0.00231934 148.965 1.82624 148.965 4.07616C148.965 6.32609 150.789 8.15001 153.039 8.15001Z" fill="#EFBEEB"/>
<path d="M165.924 13.5818H167.734C168.73 13.5818 169.545 12.767 169.545 11.7712V9.96059C169.545 8.96476 168.73 8.14999 167.734 8.14999H165.924C164.928 8.14999 164.113 8.96476 164.113 9.96059V11.7712C164.113 12.767 164.928 13.5818 165.924 13.5818Z" fill="#3F764C"/>
<path d="M171.356 8.14999H173.166C174.162 8.14999 174.977 7.33522 174.977 6.3394V4.5288C174.977 3.53297 174.162 2.7182 173.166 2.7182H171.356C170.36 2.7182 169.545 3.53297 169.545 4.5288V6.3394C169.545 7.33522 170.36 8.14999 171.356 8.14999Z" fill="#3F764C"/>
<path d="M178.598 13.5818H176.788C175.792 13.5818 174.977 12.767 174.977 11.7712V9.96059C174.977 8.96476 175.792 8.14999 176.788 8.14999H178.598C179.594 8.14999 180.409 8.96476 180.409 9.96059V11.7712C180.409 12.767 179.594 13.5818 178.598 13.5818Z" fill="#3F764C"/>
<path d="M167.735 8.15C168.731 8.15 169.545 7.33523 169.545 6.3394C169.545 7.33523 170.36 8.15 171.356 8.15C170.36 8.15 169.545 8.96477 169.545 9.9606C169.545 8.96477 168.731 8.15 167.735 8.15Z" fill="#3F764C"/>
<path d="M173.167 8.15C174.162 8.15 174.977 7.33523 174.977 6.3394C174.977 7.33523 175.792 8.15 176.788 8.15C175.792 8.15 174.977 8.96477 174.977 9.9606C174.977 8.96477 174.162 8.15 173.167 8.15Z" fill="#3F764C"/>
<path d="M187.409 0.00231934C191.909 0.00231934 195.557 3.65067 195.557 8.15001H187.409V0.00231934Z" fill="#7697E6"/>
<path d="M203.704 0.00231934C203.704 4.50165 200.056 8.15001 195.557 8.15001V0.00231934H203.704Z" fill="#7697E6"/>
<path d="M203.704 16.2977C199.205 16.2977 195.557 12.6493 195.557 8.15001H203.704V16.2977Z" fill="#7697E6"/>
<path d="M187.409 16.2977C187.409 11.7984 191.058 8.15001 195.557 8.15001V16.2977H187.409Z" fill="#7697E6"/>
<path d="M13.224 34.66L18.192 43.3H11.808L8.592 37.228H7.008V43.3H1.344V26.5H7.008V32.764H8.736L12.312 26.5H18.216L13.224 34.66ZM28.464 26.116C30.096 26.116 31.536 26.444 32.784 27.1C34.032 27.74 35 28.684 35.688 29.932C36.392 31.164 36.744 32.636 36.744 34.348V43.3H31.08V39.916H25.752V43.3H20.184V34.348C20.184 32.636 20.528 31.164 21.216 29.932C21.92 28.684 22.896 27.74 24.144 27.1C25.392 26.444 26.832 26.116 28.464 26.116ZM31.08 35.644V33.868C31.08 32.828 30.832 32.044 30.336 31.516C29.856 30.972 29.216 30.7 28.416 30.7C27.616 30.7 26.968 30.972 26.472 31.516C25.992 32.044 25.752 32.828 25.752 33.868V35.644H31.08ZM48.9442 26.116C50.5282 26.116 51.9282 26.428 53.1442 27.052C54.3602 27.676 55.3042 28.588 55.9762 29.788C56.6642 30.972 57.0082 32.388 57.0082 34.036V43.3H51.3442V33.556C51.3442 32.612 51.1202 31.9 50.6722 31.42C50.2402 30.94 49.6642 30.7 48.9442 30.7C48.2082 30.7 47.6162 30.94 47.1682 31.42C46.7362 31.9 46.5202 32.612 46.5202 33.556V43.3H38.9842L38.9602 38.908H40.8562V34.036C40.8562 32.388 41.1922 30.972 41.8642 29.788C42.5522 28.588 43.5042 27.676 44.7202 27.052C45.9362 26.428 47.3442 26.116 48.9442 26.116ZM75.3613 42.196C74.4653 42.66 73.3853 43.028 72.1213 43.3C70.8573 43.556 69.5693 43.684 68.2573 43.684C66.3693 43.684 64.7613 43.468 63.4333 43.036C62.1213 42.588 61.1293 41.972 60.4573 41.188C59.7853 40.388 59.4493 39.476 59.4493 38.452C59.4493 37.604 59.6733 36.844 60.1213 36.172C60.5853 35.5 61.2413 34.98 62.0893 34.612C61.4493 34.26 60.9613 33.804 60.6253 33.244C60.3053 32.668 60.1453 32.036 60.1453 31.348C60.1453 30.404 60.4493 29.54 61.0573 28.756C61.6813 27.956 62.6253 27.316 63.8893 26.836C65.1693 26.356 66.7373 26.116 68.5933 26.116C69.7293 26.116 70.8413 26.22 71.9293 26.428C73.0333 26.62 74.0173 26.884 74.8813 27.22L73.3453 31.348C71.8413 30.74 70.3293 30.436 68.8093 30.436C67.8173 30.436 67.0733 30.548 66.5773 30.772C66.0973 30.996 65.8573 31.308 65.8573 31.708C65.8573 32.044 65.9773 32.3 66.2173 32.476C66.4573 32.652 66.8573 32.74 67.4173 32.74H72.3373V36.916H67.0333C66.4093 36.916 65.9373 37.02 65.6173 37.228C65.3133 37.42 65.1613 37.7 65.1613 38.068C65.1613 38.932 66.2653 39.364 68.4733 39.364C69.3213 39.364 70.2173 39.252 71.1613 39.028C72.1213 38.788 72.9693 38.476 73.7053 38.092L75.3613 42.196ZM89.6968 34.66L94.6648 43.3H88.2808L85.0648 37.228H83.4808V43.3H77.8168V26.5H83.4808V32.764H85.2088L88.7848 26.5H94.6888L89.6968 34.66ZM115.476 38.908V46.588H110.292V43.3H96.8036V26.5H102.372V38.908H107.7V26.5H113.268V38.908H115.476ZM126.91 31.372C129.182 31.372 130.926 31.892 132.142 32.932C133.374 33.956 133.99 35.436 133.99 37.372C133.99 39.42 133.286 40.996 131.878 42.1C130.47 43.188 128.446 43.732 125.806 43.732C123.214 43.732 121.278 43.188 119.998 42.1C118.718 41.012 118.078 39.372 118.078 37.18V26.5H123.646V31.876C124.222 31.7 124.758 31.572 125.254 31.492C125.766 31.412 126.318 31.372 126.91 31.372ZM141.046 26.5V43.3H135.478V26.5H141.046ZM126.094 39.532C126.798 39.532 127.342 39.356 127.726 39.004C128.11 38.652 128.302 38.148 128.302 37.492C128.302 36.132 127.47 35.452 125.806 35.452C125.006 35.452 124.286 35.58 123.646 35.836V37.036C123.646 37.836 123.854 38.452 124.27 38.884C124.702 39.316 125.31 39.532 126.094 39.532ZM159.725 26.5V43.3H154.157V39.316H152.645L150.077 43.3H144.149L147.461 38.5C146.373 37.988 145.533 37.268 144.941 36.34C144.365 35.396 144.077 34.284 144.077 33.004C144.077 31.676 144.389 30.524 145.013 29.548C145.653 28.572 146.557 27.82 147.725 27.292C148.893 26.764 150.269 26.5 151.853 26.5H159.725ZM151.949 30.868C150.509 30.868 149.789 31.548 149.789 32.908C149.789 34.332 150.509 35.044 151.949 35.044H154.157V30.868H151.949ZM165.828 43.54C164.916 43.54 164.156 43.252 163.548 42.676C162.956 42.084 162.66 41.332 162.66 40.42C162.66 39.508 162.956 38.772 163.548 38.212C164.156 37.636 164.916 37.348 165.828 37.348C166.74 37.348 167.492 37.636 168.084 38.212C168.692 38.772 168.996 39.508 168.996 40.42C168.996 41.332 168.692 42.084 168.084 42.676C167.492 43.252 166.74 43.54 165.828 43.54ZM171.917 26.5H186.485V30.772H177.485V32.716H181.493C183.541 32.716 185.109 33.156 186.197 34.036C187.301 34.9 187.853 36.156 187.853 37.804C187.853 39.516 187.229 40.86 185.981 41.836C184.733 42.812 182.997 43.3 180.773 43.3H171.917V26.5ZM180.389 39.34C180.949 39.34 181.381 39.22 181.685 38.98C182.005 38.74 182.165 38.396 182.165 37.948C182.165 37.084 181.573 36.652 180.389 36.652H177.485V39.34H180.389ZM198.776 26.116C200.408 26.116 201.848 26.444 203.096 27.1C204.344 27.74 205.312 28.684 206 29.932C206.704 31.164 207.056 32.636 207.056 34.348V43.3H201.392V39.916H196.064V43.3H190.496V34.348C190.496 32.636 190.84 31.164 191.528 29.932C192.232 28.684 193.208 27.74 194.456 27.1C195.704 26.444 197.144 26.116 198.776 26.116ZM201.392 35.644V33.868C201.392 32.828 201.144 32.044 200.648 31.516C200.168 30.972 199.528 30.7 198.728 30.7C197.928 30.7 197.28 30.972 196.784 31.516C196.304 32.044 196.064 32.828 196.064 33.868V35.644H201.392ZM226.832 26.5V43.3H221.336V41.5C220.2 42.956 218.648 43.684 216.68 43.684C214.712 43.684 213.184 43.036 212.096 41.74C211.008 40.444 210.464 38.604 210.464 36.22V26.5H216.128V36.052C216.128 37.076 216.344 37.844 216.776 38.356C217.208 38.852 217.808 39.1 218.576 39.1C219.328 39.1 219.944 38.828 220.424 38.284C220.92 37.724 221.168 36.916 221.168 35.86V26.5H226.832ZM218.744 25.54C216.888 25.54 215.552 25.196 214.736 24.508C213.92 23.82 213.512 22.788 213.512 21.412H217.28C217.28 21.956 217.384 22.348 217.592 22.588C217.816 22.828 218.2 22.948 218.744 22.948C219.288 22.948 219.672 22.828 219.896 22.588C220.136 22.348 220.256 21.956 220.256 21.412H224.024C224.024 22.788 223.608 23.82 222.776 24.508C221.944 25.196 220.6 25.54 218.744 25.54Z" fill="#29282E"/>
<path d="M12.112 61.82C13.168 61.82 13.9947 62.124 14.592 62.732C15.2 63.34 15.504 64.236 15.504 65.42V70.3H14.368V65.532C14.368 64.6573 14.1547 63.9907 13.728 63.532C13.312 63.0733 12.72 62.844 11.952 62.844C11.0773 62.844 10.3893 63.116 9.888 63.66C9.38667 64.1933 9.136 64.9347 9.136 65.884V70.3H8V65.532C8 64.6573 7.78667 63.9907 7.36 63.532C6.944 63.0733 6.34667 62.844 5.568 62.844C4.704 62.844 4.016 63.116 3.504 63.66C3.00267 64.1933 2.752 64.9347 2.752 65.884V70.3H1.616V61.884H2.704V63.42C3.00267 62.908 3.41867 62.5133 3.952 62.236C4.48533 61.9587 5.09867 61.82 5.792 61.82C6.496 61.82 7.104 61.9693 7.616 62.268C8.13867 62.5667 8.528 63.0093 8.784 63.596C9.09333 63.0413 9.536 62.6093 10.112 62.3C10.6987 61.98 11.3653 61.82 12.112 61.82ZM26.1234 61.884V70.3H25.0354V68.636C24.694 69.2013 24.2407 69.6333 23.6754 69.932C23.1207 70.2307 22.4914 70.38 21.7874 70.38C20.998 70.38 20.2834 70.1987 19.6434 69.836C19.0034 69.4733 18.502 68.9667 18.1394 68.316C17.7767 67.6653 17.5954 66.924 17.5954 66.092C17.5954 65.26 17.7767 64.5187 18.1394 63.868C18.502 63.2173 19.0034 62.716 19.6434 62.364C20.2834 62.0013 20.998 61.82 21.7874 61.82C22.47 61.82 23.0834 61.964 23.6274 62.252C24.182 62.5293 24.6354 62.94 24.9874 63.484V61.884H26.1234ZM21.8834 69.372C22.47 69.372 22.998 69.2387 23.4674 68.972C23.9474 68.6947 24.3207 68.3053 24.5874 67.804C24.8647 67.3027 25.0034 66.732 25.0034 66.092C25.0034 65.452 24.8647 64.8813 24.5874 64.38C24.3207 63.8787 23.9474 63.4947 23.4674 63.228C22.998 62.9507 22.47 62.812 21.8834 62.812C21.286 62.812 20.7474 62.9507 20.2674 63.228C19.798 63.4947 19.4247 63.8787 19.1474 64.38C18.8807 64.8813 18.7474 65.452 18.7474 66.092C18.7474 66.732 18.8807 67.3027 19.1474 67.804C19.4247 68.3053 19.798 68.6947 20.2674 68.972C20.7474 69.2387 21.286 69.372 21.8834 69.372ZM33.3991 62.092C34.1778 62.092 34.8711 62.268 35.4791 62.62C36.0978 62.9613 36.5778 63.4467 36.9191 64.076C37.2605 64.6947 37.4311 65.404 37.4311 66.204C37.4311 67.0253 37.2498 67.756 36.8871 68.396C36.5351 69.0253 36.0391 69.516 35.3991 69.868C34.7591 70.22 34.0231 70.396 33.1911 70.396C31.7938 70.396 30.7111 69.9053 29.9431 68.924C29.1751 67.9427 28.7911 66.588 28.7911 64.86C28.7911 63.0573 29.1325 61.676 29.8151 60.716C30.5085 59.756 31.5858 59.1053 33.0471 58.764L36.8231 57.9L37.0151 58.94L33.4631 59.756C32.2578 60.0227 31.3725 60.4973 30.8071 61.18C30.2418 61.852 29.9325 62.8493 29.8791 64.172C30.2205 63.5213 30.6951 63.0147 31.3031 62.652C31.9111 62.2787 32.6098 62.092 33.3991 62.092ZM33.2231 69.452C33.8098 69.452 34.3325 69.3187 34.7911 69.052C35.2605 68.7747 35.6231 68.3907 35.8791 67.9C36.1458 67.4093 36.2791 66.8547 36.2791 66.236C36.2791 65.6173 36.1511 65.0733 35.8951 64.604C35.6391 64.1347 35.2765 63.772 34.8071 63.516C34.3485 63.2493 33.8205 63.116 33.2231 63.116C32.6258 63.116 32.0925 63.2493 31.6231 63.516C31.1645 63.772 30.8018 64.1347 30.5351 64.604C30.2791 65.0733 30.1511 65.6173 30.1511 66.236C30.1511 66.8547 30.2791 67.4093 30.5351 67.9C30.8018 68.3907 31.1698 68.7747 31.6391 69.052C32.1085 69.3187 32.6365 69.452 33.2231 69.452ZM43.434 69.372C43.9567 69.372 44.4367 69.2813 44.874 69.1C45.322 68.908 45.7007 68.6307 46.01 68.268L46.65 69.004C46.2767 69.452 45.8127 69.7933 45.258 70.028C44.7033 70.2627 44.09 70.38 43.418 70.38C42.554 70.38 41.786 70.1987 41.114 69.836C40.442 69.4627 39.9193 68.9507 39.546 68.3C39.1727 67.6493 38.986 66.9133 38.986 66.092C38.986 65.2707 39.162 64.5347 39.514 63.884C39.8767 63.2333 40.3727 62.7267 41.002 62.364C41.6313 62.0013 42.346 61.82 43.146 61.82C43.8927 61.82 44.5647 61.9907 45.162 62.332C45.77 62.6733 46.25 63.148 46.602 63.756C46.9647 64.364 47.1567 65.0573 47.178 65.836L40.266 67.18C40.4793 67.8627 40.8633 68.4013 41.418 68.796C41.9833 69.18 42.6553 69.372 43.434 69.372ZM43.146 62.796C42.5593 62.796 42.0313 62.9347 41.562 63.212C41.1033 63.4787 40.7407 63.8573 40.474 64.348C40.218 64.828 40.09 65.3827 40.09 66.012C40.09 66.172 40.0953 66.2893 40.106 66.364L46.042 65.212C45.914 64.508 45.5887 63.932 45.066 63.484C44.5433 63.0253 43.9033 62.796 43.146 62.796ZM57.8058 65.916C58.4031 66.0547 58.8618 66.2947 59.1818 66.636C59.5124 66.9773 59.6778 67.3933 59.6778 67.884C59.6778 68.3747 59.5071 68.812 59.1658 69.196C58.8351 69.58 58.3818 69.8787 57.8058 70.092C57.2298 70.2947 56.5951 70.396 55.9018 70.396C55.2938 70.396 54.6964 70.3107 54.1098 70.14C53.5231 69.9587 53.0111 69.6973 52.5738 69.356L52.9578 68.508C53.3418 68.796 53.7898 69.02 54.3018 69.18C54.8138 69.34 55.3311 69.42 55.8538 69.42C56.6324 69.42 57.2671 69.276 57.7578 68.988C58.2591 68.6893 58.5098 68.2893 58.5098 67.788C58.5098 67.34 58.3071 66.9933 57.9018 66.748C57.4964 66.492 56.9418 66.364 56.2378 66.364H54.7978V65.532H56.1738C56.8031 65.532 57.3098 65.4147 57.6938 65.18C58.0778 64.9347 58.2698 64.6093 58.2698 64.204C58.2698 63.756 58.0511 63.404 57.6138 63.148C57.1871 62.892 56.6271 62.764 55.9338 62.764C55.0271 62.764 54.1311 62.9933 53.2458 63.452L52.9258 62.572C53.9284 62.0493 54.9684 61.788 56.0458 61.788C56.6858 61.788 57.2618 61.884 57.7738 62.076C58.2964 62.2573 58.7018 62.5187 58.9898 62.86C59.2884 63.2013 59.4378 63.596 59.4378 64.044C59.4378 64.4707 59.2884 64.8493 58.9898 65.18C58.7018 65.5107 58.3071 65.756 57.8058 65.916ZM69.9046 61.884V70.3H68.8166V68.636C68.4753 69.2013 68.022 69.6333 67.4566 69.932C66.902 70.2307 66.2726 70.38 65.5686 70.38C64.7793 70.38 64.0646 70.1987 63.4246 69.836C62.7846 69.4733 62.2833 68.9667 61.9206 68.316C61.558 67.6653 61.3766 66.924 61.3766 66.092C61.3766 65.26 61.558 64.5187 61.9206 63.868C62.2833 63.2173 62.7846 62.716 63.4246 62.364C64.0646 62.0013 64.7793 61.82 65.5686 61.82C66.2513 61.82 66.8646 61.964 67.4086 62.252C67.9633 62.5293 68.4166 62.94 68.7686 63.484V61.884H69.9046ZM65.6646 69.372C66.2513 69.372 66.7793 69.2387 67.2486 68.972C67.7286 68.6947 68.102 68.3053 68.3686 67.804C68.646 67.3027 68.7846 66.732 68.7846 66.092C68.7846 65.452 68.646 64.8813 68.3686 64.38C68.102 63.8787 67.7286 63.4947 67.2486 63.228C66.7793 62.9507 66.2513 62.812 65.6646 62.812C65.0673 62.812 64.5286 62.9507 64.0486 63.228C63.5793 63.4947 63.206 63.8787 62.9286 64.38C62.662 64.8813 62.5286 65.452 62.5286 66.092C62.5286 66.732 62.662 67.3027 62.9286 67.804C63.206 68.3053 63.5793 68.6947 64.0486 68.972C64.5286 69.2387 65.0673 69.372 65.6646 69.372ZM80.6524 61.884V70.3H79.5164V62.892H74.2364V70.3H73.1004V61.884H80.6524ZM87.7536 61.82C88.575 61.82 89.3056 62.0013 89.9456 62.364C90.5856 62.7267 91.0816 63.2333 91.4336 63.884C91.7963 64.5347 91.9776 65.276 91.9776 66.108C91.9776 66.94 91.8016 67.6813 91.4496 68.332C91.0976 68.972 90.607 69.4733 89.9776 69.836C89.359 70.1987 88.6496 70.38 87.8496 70.38C87.1456 70.38 86.5163 70.2413 85.9616 69.964C85.4176 69.676 84.975 69.2653 84.6336 68.732V73.404H83.4976V66.124C83.4976 65.2813 83.6736 64.5347 84.0256 63.884C84.3883 63.2333 84.8896 62.7267 85.5296 62.364C86.1803 62.0013 86.9216 61.82 87.7536 61.82ZM87.7216 69.388C88.319 69.388 88.8576 69.2493 89.3376 68.972C89.8176 68.6947 90.191 68.3053 90.4576 67.804C90.7243 67.3027 90.8576 66.7373 90.8576 66.108C90.8576 65.4787 90.7243 64.9133 90.4576 64.412C90.191 63.9107 89.8176 63.5213 89.3376 63.244C88.8576 62.956 88.319 62.812 87.7216 62.812C87.1243 62.812 86.5856 62.9507 86.1056 63.228C85.6363 63.5053 85.2683 63.8947 85.0016 64.396C84.7456 64.8867 84.6176 65.452 84.6176 66.092C84.6176 66.732 84.7456 67.3027 85.0016 67.804C85.2683 68.3053 85.6363 68.6947 86.1056 68.972C86.5856 69.2493 87.1243 69.388 87.7216 69.388ZM102.077 61.884V70.3H100.989V68.636C100.647 69.2013 100.194 69.6333 99.6285 69.932C99.0738 70.2307 98.4445 70.38 97.7405 70.38C96.9512 70.38 96.2365 70.1987 95.5965 69.836C94.9565 69.4733 94.4552 68.9667 94.0925 68.316C93.7298 67.6653 93.5485 66.924 93.5485 66.092C93.5485 65.26 93.7298 64.5187 94.0925 63.868C94.4552 63.2173 94.9565 62.716 95.5965 62.364C96.2365 62.0013 96.9512 61.82 97.7405 61.82C98.4232 61.82 99.0365 61.964 99.5805 62.252C100.135 62.5293 100.589 62.94 100.941 63.484V61.884H102.077ZM97.8365 69.372C98.4232 69.372 98.9512 69.2387 99.4205 68.972C99.9005 68.6947 100.274 68.3053 100.541 67.804C100.818 67.3027 100.957 66.732 100.957 66.092C100.957 65.452 100.818 64.8813 100.541 64.38C100.274 63.8787 99.9005 63.4947 99.4205 63.228C98.9512 62.9507 98.4232 62.812 97.8365 62.812C97.2392 62.812 96.7005 62.9507 96.2205 63.228C95.7512 63.4947 95.3778 63.8787 95.1005 64.38C94.8338 64.8813 94.7005 65.452 94.7005 66.092C94.7005 66.732 94.8338 67.3027 95.1005 67.804C95.3778 68.3053 95.7512 68.6947 96.2205 68.972C96.7005 69.2387 97.2392 69.372 97.8365 69.372ZM116.888 61.884V70.3H105.272V61.884H106.408V69.308H110.536V61.884H111.672V69.308H115.752V61.884H116.888ZM122.248 61.82C123.09 61.82 123.848 62.0067 124.52 62.38C125.202 62.7427 125.736 63.2493 126.12 63.9C126.514 64.5507 126.712 65.2813 126.712 66.092C126.712 66.9027 126.514 67.6387 126.12 68.3C125.736 68.9507 125.202 69.4627 124.52 69.836C123.848 70.2093 123.09 70.396 122.248 70.396C121.544 70.396 120.898 70.2893 120.312 70.076C119.725 69.852 119.229 69.532 118.824 69.116L119.496 68.444C120.21 69.116 121.112 69.452 122.2 69.452C122.808 69.452 123.357 69.324 123.848 69.068C124.349 68.812 124.754 68.4547 125.064 67.996C125.384 67.5373 125.57 67.0253 125.624 66.46H121.128V65.596H125.608C125.49 64.7533 125.117 64.0707 124.488 63.548C123.858 63.0147 123.096 62.748 122.2 62.748C121.112 62.748 120.21 63.084 119.496 63.756L118.824 63.1C119.229 62.684 119.725 62.3693 120.312 62.156C120.898 61.932 121.544 61.82 122.248 61.82ZM129.1 61.884H130.236V65.612H135.532V61.884H136.668V70.3H135.532V66.588H130.236V70.3H129.1V61.884ZM139.897 61.884H141.033V65.612H146.329V61.884H147.465V70.3H146.329V66.588H141.033V70.3H139.897V61.884ZM154.262 69.372C154.785 69.372 155.265 69.2813 155.702 69.1C156.15 68.908 156.529 68.6307 156.838 68.268L157.478 69.004C157.105 69.452 156.641 69.7933 156.086 70.028C155.531 70.2627 154.918 70.38 154.246 70.38C153.382 70.38 152.614 70.1987 151.942 69.836C151.27 69.4627 150.747 68.9507 150.374 68.3C150.001 67.6493 149.814 66.9133 149.814 66.092C149.814 65.2707 149.99 64.5347 150.342 63.884C150.705 63.2333 151.201 62.7267 151.83 62.364C152.459 62.0013 153.174 61.82 153.974 61.82C154.721 61.82 155.393 61.9907 155.99 62.332C156.598 62.6733 157.078 63.148 157.43 63.756C157.793 64.364 157.985 65.0573 158.006 65.836L151.094 67.18C151.307 67.8627 151.691 68.4013 152.246 68.796C152.811 69.18 153.483 69.372 154.262 69.372ZM153.974 62.796C153.387 62.796 152.859 62.9347 152.39 63.212C151.931 63.4787 151.569 63.8573 151.302 64.348C151.046 64.828 150.918 65.3827 150.918 66.012C150.918 66.172 150.923 66.2893 150.934 66.364L156.87 65.212C156.742 64.508 156.417 63.932 155.894 63.484C155.371 63.0253 154.731 62.796 153.974 62.796ZM172.186 61.884V70.3H171.098V68.636C170.757 69.2013 170.303 69.6333 169.738 69.932C169.183 70.2307 168.554 70.38 167.85 70.38C167.061 70.38 166.346 70.1987 165.706 69.836C165.066 69.4733 164.565 68.9667 164.202 68.316C163.839 67.6653 163.658 66.924 163.658 66.092C163.658 65.26 163.839 64.5187 164.202 63.868C164.565 63.2173 165.066 62.716 165.706 62.364C166.346 62.0013 167.061 61.82 167.85 61.82C168.533 61.82 169.146 61.964 169.69 62.252C170.245 62.5293 170.698 62.94 171.05 63.484V61.884H172.186ZM167.946 69.372C168.533 69.372 169.061 69.2387 169.53 68.972C170.01 68.6947 170.383 68.3053 170.65 67.804C170.927 67.3027 171.066 66.732 171.066 66.092C171.066 65.452 170.927 64.8813 170.65 64.38C170.383 63.8787 170.01 63.4947 169.53 63.228C169.061 62.9507 168.533 62.812 167.946 62.812C167.349 62.812 166.81 62.9507 166.33 63.228C165.861 63.4947 165.487 63.8787 165.21 64.38C164.943 64.8813 164.81 65.452 164.81 66.092C164.81 66.732 164.943 67.3027 165.21 67.804C165.487 68.3053 165.861 68.6947 166.33 68.972C166.81 69.2387 167.349 69.372 167.946 69.372ZM183.158 61.884V69.276C183.158 70.7053 182.806 71.7613 182.102 72.444C181.408 73.1373 180.358 73.484 178.95 73.484C178.171 73.484 177.43 73.3667 176.726 73.132C176.032 72.908 175.467 72.5933 175.03 72.188L175.606 71.324C176.011 71.6867 176.502 71.9693 177.078 72.172C177.664 72.3747 178.278 72.476 178.918 72.476C179.984 72.476 180.768 72.2253 181.27 71.724C181.771 71.2333 182.022 70.4653 182.022 69.42V68.348C181.67 68.8813 181.206 69.2867 180.63 69.564C180.064 69.8413 179.435 69.98 178.742 69.98C177.952 69.98 177.232 69.8093 176.582 69.468C175.942 69.116 175.435 68.6307 175.062 68.012C174.699 67.3827 174.518 66.6733 174.518 65.884C174.518 65.0947 174.699 64.3907 175.062 63.772C175.435 63.1533 175.942 62.6733 176.582 62.332C177.222 61.9907 177.942 61.82 178.742 61.82C179.456 61.82 180.102 61.964 180.678 62.252C181.254 62.54 181.718 62.956 182.07 63.5V61.884H183.158ZM178.854 68.972C179.462 68.972 180.011 68.844 180.502 68.588C180.992 68.3213 181.371 67.9533 181.638 67.484C181.915 67.0147 182.054 66.4813 182.054 65.884C182.054 65.2867 181.915 64.7587 181.638 64.3C181.371 63.8307 180.992 63.468 180.502 63.212C180.022 62.9453 179.472 62.812 178.854 62.812C178.246 62.812 177.696 62.94 177.206 63.196C176.726 63.452 176.347 63.8147 176.07 64.284C175.803 64.7533 175.67 65.2867 175.67 65.884C175.67 66.4813 175.803 67.0147 176.07 67.484C176.347 67.9533 176.726 68.3213 177.206 68.588C177.696 68.844 178.246 68.972 178.854 68.972ZM190.857 59.1H199.049V60.108H192.025V63.772H195.689C197.011 63.772 198.014 64.044 198.697 64.588C199.39 65.132 199.737 65.9213 199.737 66.956C199.737 68.0333 199.363 68.86 198.617 69.436C197.881 70.012 196.819 70.3 195.433 70.3H190.857V59.1ZM195.417 69.356C196.451 69.356 197.23 69.1587 197.753 68.764C198.286 68.3693 198.553 67.7827 198.553 67.004C198.553 66.236 198.291 65.6653 197.769 65.292C197.257 64.908 196.473 64.716 195.417 64.716H192.025V69.356H195.417ZM205.682 70.38C204.871 70.38 204.14 70.1987 203.49 69.836C202.839 69.4627 202.327 68.9507 201.954 68.3C201.58 67.6493 201.394 66.9133 201.394 66.092C201.394 65.2707 201.58 64.5347 201.954 63.884C202.327 63.2333 202.839 62.7267 203.49 62.364C204.14 62.0013 204.871 61.82 205.682 61.82C206.492 61.82 207.223 62.0013 207.874 62.364C208.524 62.7267 209.031 63.2333 209.394 63.884C209.767 64.5347 209.954 65.2707 209.954 66.092C209.954 66.9133 209.767 67.6493 209.394 68.3C209.031 68.9507 208.524 69.4627 207.874 69.836C207.223 70.1987 206.492 70.38 205.682 70.38ZM205.682 69.372C206.279 69.372 206.812 69.2387 207.282 68.972C207.762 68.6947 208.135 68.3053 208.402 67.804C208.668 67.3027 208.802 66.732 208.802 66.092C208.802 65.452 208.668 64.8813 208.402 64.38C208.135 63.8787 207.762 63.4947 207.282 63.228C206.812 62.9507 206.279 62.812 205.682 62.812C205.084 62.812 204.546 62.9507 204.066 63.228C203.596 63.4947 203.223 63.8787 202.946 64.38C202.679 64.8813 202.546 65.452 202.546 66.092C202.546 66.732 202.679 67.3027 202.946 67.804C203.223 68.3053 203.596 68.6947 204.066 68.972C204.546 69.2387 205.084 69.372 205.682 69.372ZM218.334 62.892H213.518V70.3H212.382V61.884H218.334V62.892ZM227.233 61.884V70.3H226.145V68.636C225.803 69.2013 225.35 69.6333 224.785 69.932C224.23 70.2307 223.601 70.38 222.897 70.38C222.107 70.38 221.393 70.1987 220.753 69.836C220.113 69.4733 219.611 68.9667 219.249 68.316C218.886 67.6653 218.705 66.924 218.705 66.092C218.705 65.26 218.886 64.5187 219.249 63.868C219.611 63.2173 220.113 62.716 220.753 62.364C221.393 62.0013 222.107 61.82 222.897 61.82C223.579 61.82 224.193 61.964 224.737 62.252C225.291 62.5293 225.745 62.94 226.097 63.484V61.884H227.233ZM222.993 69.372C223.579 69.372 224.107 69.2387 224.577 68.972C225.057 68.6947 225.43 68.3053 225.697 67.804C225.974 67.3027 226.113 66.732 226.113 66.092C226.113 65.452 225.974 64.8813 225.697 64.38C225.43 63.8787 225.057 63.4947 224.577 63.228C224.107 62.9507 223.579 62.812 222.993 62.812C222.395 62.812 221.857 62.9507 221.377 63.228C220.907 63.4947 220.534 63.8787 220.257 64.38C219.99 64.8813 219.857 65.452 219.857 66.092C219.857 66.732 219.99 67.3027 220.257 67.804C220.534 68.3053 220.907 68.6947 221.377 68.972C221.857 69.2387 222.395 69.372 222.993 69.372Z" fill="#29282E"/>
</svg>
