<svg width="31" height="31" viewBox="0 0 31 31" fill="none" xmlns="http://www.w3.org/2000/svg">
<path d="M29.3346 5.0912H16.6291C15.9025 2.53387 13.5459 0.655396 10.7588 0.655396C7.97172 0.655396 5.61516 2.53387 4.88859 5.0912H2.65331C1.73347 5.09114 0.987793 5.83688 0.987793 6.75666C0.987793 7.67643 1.73347 8.42223 2.65331 8.42223H4.88847C5.6151 10.9796 7.97161 12.858 10.7587 12.858C13.5458 12.858 15.9024 10.9796 16.629 8.42223H29.3346C30.2544 8.42223 31.0001 7.67649 31.0001 6.75671C31.0001 5.83694 30.2544 5.0912 29.3346 5.0912ZM10.7588 9.52689C9.23119 9.52689 7.98849 8.28412 7.98849 6.7566C7.98849 5.22907 9.23119 3.98631 10.7588 3.98631C12.2864 3.98631 13.5291 5.22907 13.5291 6.7566C13.5291 8.28412 12.2864 9.52689 10.7588 9.52689Z" fill="#FBFBFB"/>
<path d="M29.3347 13.9792H27.0955C26.3688 11.4218 24.0123 9.54337 21.2252 9.54337C18.4381 9.54337 16.0815 11.4218 15.355 13.9792H2.65331C1.73347 13.9792 0.987793 14.7249 0.987793 15.6447C0.987793 16.5645 1.73347 17.3102 2.65331 17.3102H15.355C16.0816 19.8675 18.4381 21.746 21.2252 21.746C24.0123 21.746 26.3689 19.8675 27.0955 17.3102H29.3347C30.2545 17.3102 31.0002 16.5645 31.0002 15.6447C31.0002 14.7249 30.2545 13.9792 29.3347 13.9792ZM21.2252 18.415C19.6976 18.415 18.4549 17.1722 18.4549 15.6447C18.4549 14.1171 19.6977 12.8744 21.2252 12.8744C22.7528 12.8744 23.9955 14.1172 23.9955 15.6447C23.9956 17.1723 22.7527 18.415 21.2252 18.415Z" fill="#FBFBFB"/>
<path d="M29.3346 22.9111H16.6291C15.9025 20.3538 13.5459 18.4753 10.7588 18.4753C7.97172 18.4753 5.61516 20.3538 4.88859 22.9111H2.65331C1.73347 22.911 0.987793 23.6568 0.987793 24.5765C0.987793 25.4963 1.73347 26.2421 2.65331 26.2421H4.88847C5.6151 28.7994 7.97161 30.6779 10.7587 30.6779C13.5458 30.6779 15.9024 28.7994 16.629 26.2421H29.3346C30.2544 26.2421 31.0001 25.4964 31.0001 24.5766C31.0001 23.6568 30.2544 22.9111 29.3346 22.9111ZM10.7588 27.3468C9.23119 27.3468 7.98849 26.104 7.98849 24.5765C7.98849 23.049 9.23119 21.8062 10.7588 21.8062C12.2864 21.8062 13.5291 23.049 13.5291 24.5765C13.5291 26.104 12.2864 27.3468 10.7588 27.3468Z" fill="#FBFBFB"/>
</svg>
